<svg xmlns="http://www.w3.org/2000/svg" viewBox="0 0 1280 312" width="1280" height="312" font-family="Inter, 'Segoe UI', Roboto, Helvetica, Arial, sans-serif" role="img" aria-label="nefi recipe: coordinates, encoding, field, operator, losses, solver, diagnostics">
  <title>nefi recipe: coordinates, encoding, field, operator, losses, solver, diagnostics</title>
  <defs><marker id="a" viewBox="0 0 10 10" refX="8.5" refY="5" markerWidth="7" markerHeight="7" orient="auto-start-reverse"><path d="M0,0 L10,5 L0,10 z" fill="#8f8ba8"/></marker></defs>
  <path d="M13 46 V40 H539 V46" fill="none" stroke="#a78bfa" stroke-width="1.5" stroke-linecap="round" stroke-linejoin="round"/>
  <text x="276.0" y="30" text-anchor="middle" fill="#a78bfa" font-size="12" font-weight="700" letter-spacing="0.08em">REPRESENTATION · the prior</text>
  <path d="M559 46 V40 H721 V46" fill="none" stroke="#fb923c" stroke-width="1.5" stroke-linecap="round" stroke-linejoin="round"/>
  <text x="640.0" y="30" text-anchor="middle" fill="#fb923c" font-size="12" font-weight="700" letter-spacing="0.08em">PHYSICS · hard constraint</text>
  <path d="M741 46 V40 H1085 V46" fill="none" stroke="#f472b6" stroke-width="1.5" stroke-linecap="round" stroke-linejoin="round"/>
  <text x="913.0" y="30" text-anchor="middle" fill="#f472b6" font-size="12" font-weight="700" letter-spacing="0.08em">FIT · one measurement</text>
  <path d="M1105 46 V40 H1267 V46" fill="none" stroke="#2dd4bf" stroke-width="1.5" stroke-linecap="round" stroke-linejoin="round"/>
  <text x="1186.0" y="30" text-anchor="middle" fill="#2dd4bf" font-size="12" font-weight="700" letter-spacing="0.08em">TRUST</text>
  <rect x="11" y="64" width="166" height="124" rx="12" fill="#221a3d" stroke="#a78bfa" stroke-width="1.6"/>
  <circle cx="34" cy="89" r="11" fill="#a78bfa"/>
  <text x="34" y="93.5" text-anchor="middle" fill="#221a3d" font-size="12.5" font-weight="700">1</text>
  <text x="53" y="94" fill="#f1effa" font-size="15.5" font-weight="700">Coordinates</text>
  <text x="24" y="126" fill="#f1effa" font-size="12.5">r ∈ [−1, 1]ᵈ</text>
  <text x="24" y="145" fill="#b3afc9" font-size="12.5">any grid, any size</text>
  <text x="24" y="172" fill="#a9a4c4" font-size="11.5" font-family="'JetBrains Mono', 'SFMono-Regular', Menlo, Consolas, monospace">Domain</text>
  <rect x="193" y="64" width="166" height="124" rx="12" fill="#221a3d" stroke="#a78bfa" stroke-width="1.6"/>
  <circle cx="216" cy="89" r="11" fill="#a78bfa"/>
  <text x="216" y="93.5" text-anchor="middle" fill="#221a3d" font-size="12.5" font-weight="700">2</text>
  <text x="235" y="94" fill="#f1effa" font-size="15.5" font-weight="700">Encoding</text>
  <text x="206" y="126" fill="#f1effa" font-size="12.5">Fourier features</text>
  <text x="206" y="145" fill="#b3afc9" font-size="12.5">annealed coarse → fine</text>
  <text x="206" y="172" fill="#a9a4c4" font-size="11.5" font-family="'JetBrains Mono', 'SFMono-Regular', Menlo, Consolas, monospace">FourierFeatures</text>
  <path d="M179 126.0 H191" stroke="#8f8ba8" stroke-width="1.6" marker-end="url(#a)"/>
  <rect x="375" y="64" width="166" height="124" rx="12" fill="#221a3d" stroke="#a78bfa" stroke-width="1.6"/>
  <circle cx="398" cy="89" r="11" fill="#a78bfa"/>
  <text x="398" y="93.5" text-anchor="middle" fill="#221a3d" font-size="12.5" font-weight="700">3</text>
  <text x="417" y="94" fill="#f1effa" font-size="15.5" font-weight="700">Field + heads</text>
  <text x="388" y="126" fill="#f1effa" font-size="12.5">MLP · grid · hash · …</text>
  <text x="388" y="145" fill="#b3afc9" font-size="12.5">heads = value priors</text>
  <text x="388" y="172" fill="#a9a4c4" font-size="11.5" font-family="'JetBrains Mono', 'SFMono-Regular', Menlo, Consolas, monospace">nefi.fields</text>
  <path d="M361 126.0 H373" stroke="#8f8ba8" stroke-width="1.6" marker-end="url(#a)"/>
  <rect x="557" y="64" width="166" height="124" rx="12" fill="#35201a" stroke="#fb923c" stroke-width="1.6"/>
  <circle cx="580" cy="89" r="11" fill="#fb923c"/>
  <text x="580" y="93.5" text-anchor="middle" fill="#35201a" font-size="12.5" font-weight="700">4</text>
  <text x="599" y="94" fill="#f1effa" font-size="15.5" font-weight="700">Operator</text>
  <text x="570" y="126" fill="#f1effa" font-size="12.5">differentiable F(x)</text>
  <text x="570" y="145" fill="#b3afc9" font-size="12.5">PDE · FFT · wave · …</text>
  <text x="570" y="172" fill="#a9a4c4" font-size="11.5" font-family="'JetBrains Mono', 'SFMono-Regular', Menlo, Consolas, monospace">nefi.operators</text>
  <path d="M543 126.0 H555" stroke="#8f8ba8" stroke-width="1.6" marker-end="url(#a)"/>
  <rect x="739" y="64" width="166" height="124" rx="12" fill="#341a2c" stroke="#f472b6" stroke-width="1.6"/>
  <circle cx="762" cy="89" r="11" fill="#f472b6"/>
  <text x="762" y="93.5" text-anchor="middle" fill="#341a2c" font-size="12.5" font-weight="700">5</text>
  <text x="781" y="94" fill="#f1effa" font-size="15.5" font-weight="700">Losses</text>
  <text x="752" y="126" fill="#f1effa" font-size="12.5">fidelity to data y</text>
  <text x="752" y="145" fill="#b3afc9" font-size="12.5">+ priors: TV, ℓ₁, …</text>
  <text x="752" y="172" fill="#a9a4c4" font-size="11.5" font-family="'JetBrains Mono', 'SFMono-Regular', Menlo, Consolas, monospace">nefi.losses</text>
  <path d="M725 126.0 H737" stroke="#8f8ba8" stroke-width="1.6" marker-end="url(#a)"/>
  <rect x="921" y="64" width="166" height="124" rx="12" fill="#341a2c" stroke="#f472b6" stroke-width="1.6"/>
  <circle cx="944" cy="89" r="11" fill="#f472b6"/>
  <text x="944" y="93.5" text-anchor="middle" fill="#341a2c" font-size="12.5" font-weight="700">6</text>
  <text x="963" y="94" fill="#f1effa" font-size="15.5" font-weight="700">Solver</text>
  <text x="934" y="126" fill="#f1effa" font-size="12.5">multiscale curriculum</text>
  <text x="934" y="145" fill="#b3afc9" font-size="12.5">AdamW · Morozov stop</text>
  <text x="934" y="172" fill="#a9a4c4" font-size="11.5" font-family="'JetBrains Mono', 'SFMono-Regular', Menlo, Consolas, monospace">nefi.solve</text>
  <path d="M907 126.0 H919" stroke="#8f8ba8" stroke-width="1.6" marker-end="url(#a)"/>
  <rect x="1103" y="64" width="166" height="124" rx="12" fill="#122b2b" stroke="#2dd4bf" stroke-width="1.6"/>
  <circle cx="1126" cy="89" r="11" fill="#2dd4bf"/>
  <text x="1126" y="93.5" text-anchor="middle" fill="#122b2b" font-size="12.5" font-weight="700">7</text>
  <text x="1145" y="94" fill="#f1effa" font-size="15.5" font-weight="700">Diagnostics</text>
  <text x="1116" y="126" fill="#f1effa" font-size="12.5">χ = RMSE / σ</text>
  <text x="1116" y="145" fill="#b3afc9" font-size="12.5">sensitivity · spectra</text>
  <text x="1116" y="172" fill="#a9a4c4" font-size="11.5" font-family="'JetBrains Mono', 'SFMono-Regular', Menlo, Consolas, monospace">nefi.diagnostics</text>
  <path d="M1089 126.0 H1101" stroke="#8f8ba8" stroke-width="1.6" marker-end="url(#a)"/>
  <rect x="748.0" y="211" width="148" height="30" rx="15" fill="#1b1a33" stroke="#f1effa" stroke-width="1.4"/>
  <text x="822.0" y="230.5" text-anchor="middle" fill="#f1effa" font-size="13" font-weight="600">measurement y</text>
  <path d="M822.0 210 V192" stroke="#8f8ba8" stroke-width="1.6" marker-end="url(#a)"/>
  <path d="M1004.0 191 V260 Q1004.0 272 992.0 272 H470.0 Q458.0 272 458.0 260 V193" fill="none" stroke="#f472b6" stroke-width="1.8" stroke-dasharray="6 4" marker-end="url(#a)"/>
  <text x="731.0" y="294" text-anchor="middle" fill="#f472b6" font-size="13" font-weight="600">∇θ — fitted to this one measurement, no labels, no training set</text>
  <text x="1186.0" y="218" text-anchor="middle" fill="#b3afc9" font-size="12.5">benchmarks · refinement</text>
  <text x="1186.0" y="236" text-anchor="middle" fill="#b3afc9" font-size="12.5">figures · 3-D viewer</text>
</svg>
